<svg xmlns="http://www.w3.org/2000/svg" viewBox="0 0 35 35" width="35px" height="35px"><defs><style>.a{fill:#35ab35;}.b{fill:#fff;}</style></defs><g transform="translate(-0.09 0.101)"><g transform="translate(0.09 -0.101)"><circle class="a" cx="17.5" cy="17.5" r="17.5"/><g transform="translate(5.982 5.186)"><path class="b" d="M23.832,11.609A11.719,11.719,0,0,1,6.477,21.773L0,23.832,2.112,17.6A11.487,11.487,0,0,1,.433,11.609a11.7,11.7,0,0,1,23.4,0Zm-11.7-9.76A9.809,9.809,0,0,0,2.3,11.609,9.657,9.657,0,0,0,4.17,17.331L2.941,20.956l3.78-1.2a9.846,9.846,0,0,0,15.248-8.145A9.81,9.81,0,0,0,12.132,1.849ZM18.04,14.283c-.072-.118-.263-.19-.55-.332s-1.7-.831-1.959-.925-.455-.142-.646.142-.741.925-.908,1.115-.334.214-.621.072a7.85,7.85,0,0,1-2.306-1.412,8.579,8.579,0,0,1-1.6-1.97c-.167-.285-.017-.439.126-.58s.287-.332.43-.5a1.907,1.907,0,0,0,.287-.475.518.518,0,0,0-.024-.5c-.071-.142-.646-1.542-.884-2.112s-.477-.475-.645-.475-.359-.024-.55-.024a1.058,1.058,0,0,0-.765.356,3.182,3.182,0,0,0-1,2.373A5.506,5.506,0,0,0,7.6,11.981a11.723,11.723,0,0,0,4.9,4.3c2.916,1.139,2.916.759,3.442.711a2.9,2.9,0,0,0,1.936-1.352A2.372,2.372,0,0,0,18.04,14.283Z" transform="translate(0)"/></g></g></g></svg>