<svg id="Group_77" data-name="Group 77" xmlns="http://www.w3.org/2000/svg" viewBox="0 0 35 35" width="35px" height="35px">
  <defs>
    <style>
      .cls-1 {
        fill: #795499;
      }

      .cls-2 {
        fill: #fff;
      }
    </style>
  </defs>
  <circle id="Ellipse_10" data-name="Ellipse 10" class="cls-1" cx="17.5" cy="17.5" r="17.5" transform="translate(0 0)"/>
  <g id="icon-viber-gray" transform="translate(6.176 6.449)">
    <g id="Group_10" data-name="Group 10" transform="translate(0 0)">
      <path id="Path_26" data-name="Path 26" class="cls-2" d="M26.471,19.92a5.676,5.676,0,0,1-3.646,3.506,31.308,31.308,0,0,1-5.75.49c-.07,0-.07,0-.07.07-.28.28-1.753,1.823-1.753,1.823l-1.893,1.963a.2.2,0,0,1-.351-.14V23.565a.151.151,0,0,0-.14-.14h0A5.844,5.844,0,0,1,9.221,19.92a20.9,20.9,0,0,1,0-8.344,5.679,5.679,0,0,1,3.646-3.507,26.42,26.42,0,0,1,9.957,0,5.839,5.839,0,0,1,3.646,3.506,20.9,20.9,0,0,1,0,8.344m1.894-8.7h0a7.682,7.682,0,0,0-5.119-5.047h0a27.62,27.62,0,0,0-10.728,0h0A7.546,7.546,0,0,0,7.4,11.225h0a22.52,22.52,0,0,0,0,9.186h0a7.514,7.514,0,0,0,4.839,4.908v2.454a.977.977,0,0,0,1.683.7l2.454-2.594c.561,0,1.052.07,1.613.07a28.124,28.124,0,0,0,5.4-.489h0a7.549,7.549,0,0,0,5.12-5.049h0a22.509,22.509,0,0,0-.14-9.186" transform="translate(-6.925 -5.65)"/>
      <path id="Path_27" data-name="Path 27" class="cls-2" d="M23.376,24.349l-.631-.21a13.906,13.906,0,0,1-5.468-3.646,14.2,14.2,0,0,1-2.106-3.226,17.128,17.128,0,0,1-.7-1.683,1.5,1.5,0,0,1,.421-1.472,3.375,3.375,0,0,1,1.122-.841.765.765,0,0,1,.912.21,12.558,12.558,0,0,1,1.4,1.963.914.914,0,0,1-.28,1.262.968.968,0,0,0-.28.21l-.211.21a.563.563,0,0,0-.07.561,5.485,5.485,0,0,0,2.945,3.3,2.485,2.485,0,0,0,.771.21c.49-.07.631-.561.912-.841a.848.848,0,0,1,1.052-.07,4.979,4.979,0,0,1,.982.7,4.5,4.5,0,0,1,.912.7.765.765,0,0,1,.21.912,3.017,3.017,0,0,1-1.333,1.473c-.14.21-.351.21-.561.28-.21-.07.21-.07,0,0" transform="translate(-9.158 -7.906)"/>
      <path id="Path_28" data-name="Path 28" class="cls-2" d="M22.318,11.9a5.2,5.2,0,0,1,5.12,4.488c.07.421.07.912.14,1.4,0,.21-.07.351-.28.351s-.28-.21-.28-.351c0-.351-.07-.771-.07-1.122a4.787,4.787,0,0,0-3.718-4,3.413,3.413,0,0,0-.841-.07c-.21,0-.421,0-.49-.28a.321.321,0,0,1,.28-.351.217.217,0,0,1,.14-.07h0" transform="translate(-11.397 -7.517)"/>
      <path id="Path_29" data-name="Path 29" class="cls-2" d="M26.529,17.864v.21a.285.285,0,0,1-.561,0v-.28a3.524,3.524,0,0,0-.421-1.683,2.752,2.752,0,0,0-1.262-1.262A4.054,4.054,0,0,0,23.3,14.5c-.14,0-.28-.07-.421-.07-.21,0-.28-.14-.28-.351a.257.257,0,0,1,.279-.28,4.287,4.287,0,0,1,1.683.49,3.771,3.771,0,0,1,1.893,2.875v.211c0,.14.07.28.07.49h0" transform="translate(-11.609 -8.083)"/>
      <path id="Path_30" data-name="Path 30" class="cls-2" d="M25.084,18.54a.321.321,0,0,1-.351-.28.889.889,0,0,0-.07-.421,1.455,1.455,0,0,0-.421-.7c-.14-.07-.21-.14-.351-.14-.14-.07-.351,0-.49-.07-.21-.07-.28-.21-.21-.351a.321.321,0,0,1,.35-.281,1.808,1.808,0,0,1,1.893,1.753v.28c-.14.14-.21.21-.351.21h0" transform="translate(-11.778 -8.828)"/>
    </g>
  </g>
</svg>
