<svg xmlns="http://www.w3.org/2000/svg" xmlns:xlink="http://www.w3.org/1999/xlink" viewBox="0 0 85 85" width="35px" height="35px"><defs><style>.a,.b{fill:#313648;}.a{clip-rule:evenodd;}.b,.c{fill-rule:evenodd;}.c{fill:none;}.d{clip-path:url(#a);}.e{fill:#209bcc;}.f{fill:#c8daea;}.g{fill:#a9c9dd;}.h{fill:url(#c);}</style><clipPath id="a"><path class="a" d="M0,0H85V85H0Z"/></clipPath><linearGradient id="c" x1="-0.375" y1="-0.66" x2="-0.352" y2="-0.66" gradientUnits="objectBoundingBox"><stop offset="0" stop-color="#eff7fc"/><stop offset="1" stop-color="#fff"/></linearGradient></defs><path class="c" d="M0,0H85V85H0Z"/><g class="d"><g class="d"><path class="e" d="M85,42.5A42.5,42.5,0,1,1,42.5,0,42.488,42.488,0,0,1,85,42.5Z"/><path class="f" d="M33,60.146c-1.381,0-1.134-.531-1.63-1.841L27.333,44.988,52.408,29.333l2.94.78L52.9,36.771,33,60.145Z" transform="translate(1.708 1.833)"/><path class="g" d="M32.667,59.229a2.766,2.766,0,0,0,2.125-1.062c.92-.885,12.75-12.4,12.75-12.4L40.281,44l-6.729,4.25-.885,10.625Z" transform="translate(2.042 2.75)"/><path class="h" d="M34.4,49.638,51.539,62.282c1.948,1.063,3.364.531,3.86-1.806l6.977-32.866c.708-2.869-1.1-4.144-2.975-3.294L18.46,40.111c-2.8,1.133-2.762,2.691-.5,3.364l10.519,3.294L52.814,31.434c1.133-.709,2.2-.319,1.345.46Z" transform="translate(1.019 1.503)"/></g></g></svg>